{"title":"Crazy Heart-AC3-5,1-BDRip[Eng]2009","uid":5467796,"size":1468842904,"categoryP":"video","categoryS":"movies","magnet":"?xt=urn:btih:048a1e60e869031866c42e04ce6f211596ce0f57&amp;dn=Crazy+Heart-AC3-5%2C1-BDRip%5BEng%5D2009&amp;tr=udp%3A%2F%2Ftracker.openbittorrent.com%3A80&amp;tr=udp%3A%2F%2Fopen.demonii.com%3A1337&amp;tr=udp%3A%2F%2Ftracker.coppersurfer.tk%3A6969&amp;tr=udp%3A%2F%2Fexodus.desync.com%3A6969","seeders":1,"leechers":0,"uploader":"FatFreddy31","files":-1,"time":1269708619,"description":" &lt;a href=&quot;http://www.imdb.com/title/tt1263670/&quot; rel=&quot;nofollow&quot; target=&quot;_NEW&quot;&gt;http://www.imdb.com/title/tt1263670/&lt;/a&gt;\n &lt;a href=&quot;\nhttp://www.foxsearchlight.com/crazyheart/&quot; rel=&quot;nofollow&quot; target=&quot;_NEW&quot;&gt;\nhttp://www.foxsearchlight.com/crazyheart/&lt;/a&gt;\n\nUser Rating:7.6/10 - 7,832 votes\n\nDrama,Music,Romance\n\nDirector:Scott Cooper\n\nCast:Jeff Bridges/James Keane/Paul Herman/Maggie Gyllenhaal, and others.\n\nPlot:\nBad Blake is a broken-down, hard-living country music singer who's had way too many marriages, far too many years on the road and one too many drinks way too many times. And yet, Bad can't help but reach for salvation with the help of Jean, a journalist who discovers the real man behind the musician.\n\nInfo:\n\nCovers included.\n\nGeneral\nComplete name                    : Crazy Heart-AC3-5,1-BDRip[Eng]2009.avi\nFormat                           : AVI\nFormat/Info                      : Audio Video Interleave\nFile size                        : 1.37 GiB\nDuration                         : 1h 51mn\nOverall bit rate                 : 1 755 Kbps\nWriting application              : VirtualDubMod 1.5.4.1 (build 2178/release)\nWriting library                  : VirtualDubMod build 2178/release\n\nVideo\nID                               : 0\nFormat                           : MPEG-4 Visual\nFormat profile                   : AdvancedSimple@L5\nFormat settings, BVOP            : No\nFormat settings, QPel            : No\nFormat settings, GMC             : No warppoints\nFormat settings, Matrix          : Default (MPEG)\nCodec ID                         : XVID\nCodec ID/Hint                    : XviD\nDuration                         : 1h 51mn\nBit rate                         : 1 297 Kbps\nWidth                            : 640 pixels\nHeight                           : 272 pixels\nDisplay aspect ratio             : 2.35:1\nFrame rate                       : 23.976 fps\nResolution                       : 24 bits\nColorimetry                      : 4:2:0\nScan type                        : Progressive\nBits/(Pixel*Frame)               : 0.311\nStream size                      : 1.01 GiB (74%)\nWriting library                  : XviD 1.2.1 (UTC 2008-12-04)\n\nAudio\nID                               : 1\nFormat                           : AC-3\nFormat/Info                      : Audio Coding 3\nCodec ID                         : 2000\nDuration                         : 1h 51mn\nBit rate mode                    : Constant\nBit rate                         : 448 Kbps\nChannel(s)                       : 6 channels\nChannel positions                : Front: L C R, Surround: L R, LFE\nSampling rate                    : 48.0 KHz\nStream size                      : 357 MiB (26%)\nAlignment                        : Split accross interleaves\nInterleave, duration             : 42 ms (1.00 video frame)\nInterleave, preload duration     : 500 ms\n\nEnjoy...","torrent":{"xt":"urn:btih:048a1e60e869031866c42e04ce6f211596ce0f57","amp;dn":"Crazy+Heart-AC3-5%2C1-BDRip%5BEng%5D2009","amp;tr":["udp%3A%2F%2Ftracker.openbittorrent.com%3A80","udp%3A%2F%2Fopen.demonii.com%3A1337","udp%3A%2F%2Ftracker.coppersurfer.tk%3A6969","udp%3A%2F%2Fexodus.desync.com%3A6969"],"infoHash":"048a1e60e869031866c42e04ce6f211596ce0f57","infoHashBuffer":{"type":"Buffer","data":[4,138,30,96,232,105,3,24,102,196,46,4,206,111,33,21,150,206,15,87]},"announce":[],"urlList":[]}}